<svg width="92" height="20" viewBox="0 0 92 20" fill="none" xmlns="http://www.w3.org/2000/svg">
<path d="M13.4831 13.3328L6.74157 6.66618L13.4831 -0.000488281H6.74157L0 6.66618L3.37079 10.037L6.74157 13.3328L10.1124 16.6287L13.4831 13.3328Z" fill="white"/>
<path d="M18.2772 10.0373L14.9064 6.66649L11.5356 3.37061L8.2397 6.66649L14.9064 13.3332L8.16479 19.9998H14.9064L18.2772 16.7039L21.6479 13.3332L18.2772 10.0373Z" fill="white"/>
<path d="M30.0375 6.66519C29.0638 6.66519 28.2398 6.96481 27.6405 7.63897C27.0413 8.31313 26.7417 9.21201 26.7417 10.4105C26.7417 11.609 27.0413 12.5079 27.5656 13.182C28.1649 13.8562 28.9139 14.1558 29.9626 14.1558C30.6368 14.1558 31.3109 14.006 32.1349 13.7813V14.7551C31.4608 14.9798 30.7117 15.1296 29.8128 15.1296C28.4645 15.1296 27.4158 14.7551 26.6667 13.9311C25.9177 13.1071 25.5432 11.9086 25.5432 10.4105C25.5432 9.43672 25.693 8.61275 26.0675 7.9386C26.442 7.26444 26.9664 6.66519 27.5656 6.29066C28.1649 5.91613 28.9888 5.69141 29.9626 5.69141C30.9364 5.69141 31.7604 5.84122 32.5094 6.21575L32.06 7.11463C31.4608 6.88991 30.7866 6.66519 30.0375 6.66519Z" fill="white"/>
<path d="M39.4007 12.583C39.4007 13.407 39.1011 14.0062 38.5019 14.4556C37.9026 14.9051 37.1536 15.1298 36.1049 15.1298C34.9813 15.1298 34.1573 14.98 33.558 14.6804V13.6317C33.9326 13.7815 34.382 13.9313 34.7565 14.0062C35.1311 14.0811 35.6554 14.156 36.1049 14.156C36.8539 14.156 37.3783 14.0062 37.6779 13.7815C38.0524 13.4819 38.2022 13.1073 38.2022 12.6579C38.2022 12.3583 38.1273 12.0586 37.9775 11.9088C37.8277 11.6841 37.603 11.5343 37.3034 11.3096C37.0037 11.1598 36.5543 10.9351 35.955 10.7103C35.1311 10.4107 34.4569 10.0362 34.1573 9.58674C33.7828 9.1373 33.633 8.61295 33.633 7.9388C33.633 7.26464 33.9326 6.66539 34.4569 6.21595C34.9813 5.76651 35.7303 5.6167 36.5543 5.6167C37.4532 5.6167 38.2771 5.76651 39.1011 6.14104L38.8015 7.03992C38.0524 6.74029 37.3034 6.59048 36.5543 6.59048C35.955 6.59048 35.5805 6.74029 35.206 6.96501C34.9064 7.18973 34.7565 7.56426 34.7565 8.0137C34.7565 8.31333 34.8315 8.61295 34.9064 8.76277C35.0562 8.98749 35.206 9.1373 35.5056 9.28711C35.8052 9.43692 36.1798 9.66164 36.779 9.88636C37.7528 10.2609 38.427 10.6354 38.8015 11.01C39.2509 11.4594 39.4007 11.9837 39.4007 12.583Z" fill="white"/>
<path d="M46.517 12.583C46.517 13.407 46.2173 14.0062 45.6181 14.4556C45.0188 14.9051 44.2698 15.1298 43.2211 15.1298C42.0975 15.1298 41.2735 14.98 40.6743 14.6804V13.6317C41.0488 13.7815 41.4982 13.9313 41.8728 14.0062C42.2473 14.0811 42.7716 14.156 43.2211 14.156C43.9701 14.156 44.4945 14.0062 44.7941 13.7815C45.1686 13.4819 45.3185 13.1073 45.3185 12.6579C45.3185 12.3583 45.2435 12.0586 45.0937 11.9088C44.9439 11.6841 44.7192 11.5343 44.4196 11.3096C44.1199 11.1598 43.6705 10.9351 43.0713 10.7103C42.2473 10.4107 41.5731 10.0362 41.2735 9.58674C40.899 9.1373 40.7492 8.61295 40.7492 7.9388C40.7492 7.26464 41.0488 6.66539 41.5731 6.21595C42.0975 5.76651 42.8465 5.6167 43.6705 5.6167C44.5694 5.6167 45.3934 5.76651 46.2173 6.14104L45.9177 7.03992C45.1686 6.74029 44.4196 6.59048 43.6705 6.59048C43.0713 6.59048 42.6967 6.74029 42.3222 6.96501C42.0226 7.18973 41.8728 7.56426 41.8728 8.0137C41.8728 8.31333 41.9477 8.61295 42.0226 8.76277C42.1724 8.98749 42.3222 9.1373 42.6218 9.28711C42.9214 9.43692 43.296 9.66164 43.8952 9.88636C44.869 10.2609 45.5432 10.6354 45.9177 11.01C46.2922 11.4594 46.517 11.9837 46.517 12.583Z" fill="white"/>
<path d="M55.8802 10.2613C55.8802 11.7594 55.4308 12.9579 54.6068 13.7819C53.7829 14.6058 52.5844 15.0553 51.0113 15.0553H48.0151V5.8418H51.1611C52.6593 5.8418 53.7829 6.21633 54.6068 6.96539C55.4308 7.71446 55.8802 8.83805 55.8802 10.2613ZM53.3334 10.3362C53.3334 9.51221 53.1836 8.83805 52.8091 8.46352C52.5095 8.08899 51.9851 7.86427 51.311 7.86427H50.5619V13.0328H51.0862C51.8353 13.0328 52.3596 12.8081 52.7342 12.3587C53.1836 11.9092 53.3334 11.2351 53.3334 10.3362Z" fill="white"/>
<path d="M60.824 15.2043C59.6255 15.2043 58.7266 14.9047 58.0525 14.2305C57.3783 13.6313 57.0787 12.7324 57.0787 11.5339C57.0787 10.3354 57.3783 9.43651 57.9776 8.76236C58.5768 8.0882 59.4757 7.78857 60.5993 7.78857C61.648 7.78857 62.4719 8.0882 63.0712 8.61254C63.6704 9.13689 63.9701 9.96086 63.9701 11.0095V12.1331H59.5506C59.5506 12.5077 59.7004 12.8073 60 13.1069C60.2996 13.3316 60.6742 13.4815 61.1236 13.4815C61.5731 13.4815 61.9476 13.4066 62.3221 13.3316C62.6966 13.2567 63.0712 13.1069 63.5206 12.8822V14.68C63.1461 14.9047 62.7716 14.9796 62.3221 15.0545C61.8727 15.1294 61.4232 15.2043 60.824 15.2043ZM60.6742 9.51142C60.3746 9.51142 60.1498 9.58633 59.9251 9.81105C59.7004 9.96086 59.6255 10.2605 59.5506 10.635H61.648C61.648 10.2605 61.5731 10.0358 61.3483 9.81105C61.2734 9.58633 61.0487 9.51142 60.6742 9.51142Z" fill="white"/>
<path d="M70.8614 12.8828C70.8614 13.6318 70.6366 14.2311 70.1123 14.6056C69.588 14.9802 68.8389 15.2049 67.8651 15.2049C67.3408 15.2049 66.8913 15.2049 66.5168 15.13C66.1423 15.0551 65.6928 14.9802 65.3183 14.8303V12.8828C65.6928 13.0326 66.1423 13.1824 66.5917 13.3322C67.0411 13.4071 67.4157 13.482 67.7902 13.482C68.3146 13.482 68.6142 13.3322 68.6142 13.1075C68.6142 12.9577 68.5393 12.8828 68.3895 12.8079C68.2396 12.733 67.7902 12.5083 67.116 12.2086C66.4419 11.909 65.9925 11.6094 65.7677 11.3098C65.543 10.9352 65.3932 10.5607 65.3932 10.0363C65.3932 9.36219 65.6179 8.83784 66.1423 8.46331C66.6666 8.08878 67.3408 7.93896 68.3146 7.93896C68.764 7.93896 69.2134 8.01387 69.6629 8.08878C70.1123 8.16368 70.4868 8.3135 70.9363 8.53822L70.2621 10.1112C69.9625 9.96144 69.588 9.81162 69.2134 9.73672C68.8389 9.66181 68.5393 9.5869 68.3146 9.5869C67.94 9.5869 67.7153 9.66181 67.7153 9.88653C67.7153 10.0363 67.7902 10.1112 67.94 10.1862C68.0898 10.2611 68.4644 10.4109 69.1385 10.7105C69.6629 10.9352 70.0374 11.085 70.2621 11.3098C70.4868 11.5345 70.7116 11.7592 70.7865 11.9839C70.7865 12.1337 70.8614 12.5083 70.8614 12.8828Z" fill="white"/>
<path d="M72.2098 6.14117C72.2098 5.76664 72.2847 5.46702 72.5095 5.3172C72.7342 5.16739 73.0338 5.01758 73.4832 5.01758C73.9327 5.01758 74.3072 5.09248 74.457 5.3172C74.6817 5.46702 74.7567 5.76664 74.7567 6.14117C74.7567 6.89024 74.3072 7.18986 73.4083 7.18986C72.5844 7.26477 72.2098 6.89024 72.2098 6.14117ZM74.6817 15.055H72.2098V7.93893H74.6817V15.055Z" fill="white"/>
<path d="M83.1461 7.93839V9.13689L82.1723 9.51142C82.3221 9.73614 82.397 10.0358 82.397 10.3354C82.397 11.0845 82.0974 11.6837 81.573 12.1331C81.0487 12.5826 80.2247 12.7324 79.176 12.7324C78.8764 12.7324 78.7266 12.7324 78.5768 12.6575C78.5019 12.7324 78.5019 12.8822 78.5019 12.9571C78.5019 13.1069 78.5768 13.1818 78.8015 13.2567C79.0262 13.3316 79.2509 13.3316 79.5506 13.3316H80.7491C82.3221 13.3316 83.1461 14.0058 83.1461 15.3541C83.1461 16.253 82.7715 16.9272 82.0225 17.3766C81.2734 17.826 80.2247 18.1257 78.8764 18.1257C77.9026 18.1257 77.0787 17.9758 76.5543 17.6013C76.03 17.3017 75.7303 16.7773 75.7303 16.1781C75.7303 15.3541 76.2547 14.7549 77.3034 14.5301C77.0787 14.4552 76.9288 14.3054 76.7041 14.0807C76.5543 13.856 76.4794 13.7062 76.4794 13.4815C76.4794 13.2567 76.5543 13.032 76.6292 12.8822C76.779 12.7324 77.0038 12.5077 77.3783 12.283C77.0038 12.1331 76.7041 11.8335 76.4794 11.5339C76.2547 11.1594 76.1798 10.7848 76.1798 10.2605C76.1798 9.51142 76.4794 8.91217 77.0038 8.46273C77.5281 8.01329 78.2772 7.78857 79.2509 7.78857C79.4008 7.78857 79.6255 7.78857 79.9251 7.86348C80.2247 7.86348 80.4494 7.93839 80.5993 7.93839H83.1461ZM77.7528 15.9534C77.7528 16.1781 77.8277 16.3279 78.0524 16.4777C78.2772 16.6275 78.5768 16.6275 78.9513 16.6275C79.5506 16.6275 80 16.5526 80.3745 16.4028C80.7491 16.253 80.8989 16.0283 80.8989 15.8036C80.8989 15.5788 80.824 15.5039 80.5993 15.429C80.3745 15.3541 80.0749 15.2792 79.6255 15.2792H78.6517C78.3521 15.2792 78.2023 15.3541 77.9775 15.429C77.8277 15.5788 77.7528 15.7286 77.7528 15.9534ZM78.5019 10.2605C78.5019 11.0095 78.7266 11.3841 79.2509 11.3841C79.4757 11.3841 79.7004 11.3092 79.7753 11.0845C79.9251 10.9346 80 10.635 80 10.2605C80 9.51142 79.7753 9.13689 79.2509 9.13689C78.8015 9.13689 78.5019 9.51142 78.5019 10.2605Z" fill="white"/>
<path d="M88.6892 15.0551V11.1599C88.6892 10.7105 88.6143 10.336 88.4644 10.1112C88.3146 9.88653 88.0899 9.73672 87.7903 9.73672C87.3408 9.73672 87.0412 9.88653 86.8914 10.2611C86.7416 10.5607 86.5918 11.1599 86.5918 11.9839V15.13H84.1199V8.01387H85.9925L86.2922 8.91275H86.442C86.6667 8.61312 86.9663 8.3135 87.3408 8.16368C87.7154 8.01387 88.1648 7.93896 88.6143 7.93896C89.4382 7.93896 90.0375 8.16368 90.4869 8.61312C90.9364 9.06256 91.1611 9.73672 91.1611 10.5607V15.2049H88.6892V15.0551Z" fill="white"/>
</svg>
